HIERARCHY
ROOT joint_Root
{
	OFFSET 0.0 0.0 0.0
	CHANNELS 6 Xposition Yposition Zposition Zrotation Xrotation Yrotation 
	JOINT Hips
	{
		OFFSET -0.726466 93.3139 -2.00062
		CHANNELS 6 Xposition Yposition Zposition Zrotation Xrotation Yrotation 
		JOINT Spine
		{
			OFFSET 15.7357 0.0 0.0
			CHANNELS 6 Xposition Yposition Zposition Zrotation Xrotation Yrotation 
			JOINT Chest
			{
				OFFSET 8.98455 -0.406207 0.0
				CHANNELS 6 Xposition Yposition Zposition Zrotation Xrotation Yrotation 
				JOINT Neck
				{
					OFFSET 16.3773 0.0 0.0
					CHANNELS 6 Xposition Yposition Zposition Zrotation Xrotation Yrotation 
					JOINT Head
					{
						OFFSET 6.45672 0.0 0.0
						CHANNELS 6 Xposition Yposition Zposition Zrotation Xrotation Yrotation 
						End Site
						{
							OFFSET 0.0 0.0 0.0
						}
					}
				}
				JOINT Shoulder_L
				{
					OFFSET 12.9942 -0.242716 4.98039
					CHANNELS 6 Xposition Yposition Zposition Zrotation Xrotation Yrotation 
					JOINT UpperArm_L
					{
						OFFSET 5.34809 0.0 0.0
						CHANNELS 6 Xposition Yposition Zposition Zrotation Xrotation Yrotation 
						JOINT LowerArm_L
						{
							OFFSET 24.3286 1.87007e-05 0.0
							CHANNELS 6 Xposition Yposition Zposition Zrotation Xrotation Yrotation 
							JOINT Hand_L
							{
								OFFSET 22.2916 0.0 0.0
								CHANNELS 6 Xposition Yposition Zposition Zrotation Xrotation Yrotation 
								End Site
								{
									OFFSET 0.0 0.0 0.0
								}
							}
						}
					}
				}
				JOINT Shoulder_R
				{
					OFFSET 12.9945 -0.242716 -4.98039
					CHANNELS 6 Xposition Yposition Zposition Zrotation Xrotation Yrotation 
					JOINT UpperArm_R
					{
						OFFSET -5.34813 0.0 0.0
						CHANNELS 6 Xposition Yposition Zposition Zrotation Xrotation Yrotation 
						JOINT LowerArm_R
						{
							OFFSET -24.3289 0.000322201 0.0
							CHANNELS 6 Xposition Yposition Zposition Zrotation Xrotation Yrotation 
							JOINT Hand_R
							{
								OFFSET -22.2915 -0.000108084 0.0
								CHANNELS 6 Xposition Yposition Zposition Zrotation Xrotation Yrotation 
								End Site
								{
									OFFSET 0.0 0.0 0.0
								}
							}
						}
					}
				}
			}
		}
		JOINT UpperLeg_L
		{
			OFFSET -2.19248 -6.46944 0.0
			CHANNELS 6 Xposition Yposition Zposition Zrotation Xrotation Yrotation 
			JOINT LowerLeg_L
			{
				OFFSET 39.0811 0.0 -1.23785e-05
				CHANNELS 6 Xposition Yposition Zposition Zrotation Xrotation Yrotation 
				JOINT Foot_L
				{
					OFFSET 40.9854 0.0 -1.26872e-05
					CHANNELS 6 Xposition Yposition Zposition Zrotation Xrotation Yrotation 
					JOINT Toes_L
					{
						OFFSET 11.7543 0.0 0.0
						CHANNELS 6 Xposition Yposition Zposition Zrotation Xrotation Yrotation 
						End Site
						{
							OFFSET 0.0 0.0 0.0
						}
					}
				}
			}
		}
		JOINT UpperLeg_R
		{
			OFFSET -2.19251 6.46944 0.0
			CHANNELS 6 Xposition Yposition Zposition Zrotation Xrotation Yrotation 
			JOINT LowerLeg_R
			{
				OFFSET -39.0811 -0.00228153 -0.0401928
				CHANNELS 6 Xposition Yposition Zposition Zrotation Xrotation Yrotation 
				JOINT Foot_R
				{
					OFFSET -40.9854 0.0 0.0
					CHANNELS 6 Xposition Yposition Zposition Zrotation Xrotation Yrotation 
					JOINT Toes_R
					{
						OFFSET -11.7543 0.0 0.0
						CHANNELS 6 Xposition Yposition Zposition Zrotation Xrotation Yrotation 
						End Site
						{
							OFFSET 0.0 0.0 0.0
						}
					}
				}
			}
		}
	}
}
MOTION
Frames:	4
Frame Time:	0.0333333
0.000000 0.000000 0.000000 0.000000 0.000000 -0.000000 -0.340614 92.194100 0.544782 88.104200 -1.494200 4.539560 15.735700 0.000005 -0.000001 79.191900 87.035400 -78.675600 8.984550 -0.406207 -0.000000 -1.936670 -1.155290 1.012950 16.377300 -0.000001 -0.000001 -0.584303 -1.474730 0.372914 6.456720 -0.000001 -0.000000 -1.482160 -1.396040 0.529099 12.994200 -0.242716 4.980390 -83.614100 -11.790000 -61.288000 5.348090 -0.000007 -0.000001 -57.580500 -53.445400 -102.029000 24.328600 0.000019 0.000005 -3.265660 -3.162500 -45.965200 22.291600 -0.000001 0.000005 16.422500 5.592470 -10.902200 12.994500 -0.242716 -4.980390 93.844700 -8.035470 -64.323700 -5.348130 -0.000001 -0.000004 -62.826500 -47.769300 -118.722000 -24.328900 0.000322 -0.000009 -4.752010 -6.615710 -35.805400 -22.291500 -0.000108 -0.000004 14.780100 5.447860 -4.563170 -2.192480 -6.469440 -0.000000 -169.770000 -18.285200 -2.117900 39.081100 -0.000007 -0.000012 -0.163458 0.405773 21.941300 40.985400 -0.000006 -0.000013 -6.050290 -1.810450 -63.169400 11.754300 -0.000000 0.000003 -0.000134 -0.001318 -16.627800 -2.192510 6.469440 -0.000001 173.420000 20.578100 -179.927000 -39.081100 -0.002282 -0.040193 0.021153 -0.051090 19.238800 -40.985400 0.000008 0.000006 -1.709910 1.987190 -62.580800 -11.754300 -0.000006 -0.000006 -0.004198 -0.053487 -18.748900
0.000000 0.000000 0.000000 0.000000 0.000000 -0.000000 -0.349164 92.188600 0.616169 88.045200 -1.644270 4.448260 15.735700 0.000005 -0.000001 79.744300 87.047900 -79.230100 8.984550 -0.406207 -0.000000 -1.951160 -1.094520 1.009630 16.377300 -0.000001 -0.000001 -0.632400 -1.413650 0.389566 6.456720 -0.000001 -0.000000 -1.489290 -1.358940 0.494553 12.994200 -0.242716 4.980390 -83.680000 -11.633100 -61.222000 5.348090 -0.000007 -0.000001 -56.416400 -54.270900 -95.484800 24.328600 0.000019 0.000005 -3.112960 -3.093170 -45.225300 22.291600 -0.000001 0.000005 16.595600 5.585290 -10.499300 12.994500 -0.242716 -4.980390 93.606400 -7.518480 -64.280500 -5.348130 -0.000001 -0.000004 -60.906400 -49.265700 -112.312000 -24.328900 0.000322 -0.000009 -4.314150 -6.377430 -34.175700 -22.291500 -0.000108 -0.000004 14.847200 5.436820 -4.174760 -2.192480 -6.469440 -0.000000 -169.722000 -18.165100 -2.140570 39.081100 -0.000007 -0.000012 -0.166504 0.412853 21.964500 40.985400 -0.000006 -0.000013 -6.136750 -2.033790 -63.265800 11.754300 -0.000000 0.000003 -0.000133 -0.001311 -16.627500 -2.192510 6.469440 -0.000001 173.508000 20.559300 -179.986000 -39.081100 -0.002282 -0.040193 0.023034 -0.056531 19.222700 -40.985400 0.000008 0.000006 -1.638200 2.079930 -62.609400 -11.754300 -0.000006 -0.000006 -0.004380 -0.055336 -18.824200
0.000000 0.000000 0.000000 0.000000 0.000000 -0.000000 -0.351309 92.192200 0.698967 88.055500 -1.786610 4.385480 15.735700 0.000005 -0.000001 81.076600 87.063300 -80.598000 8.984550 -0.406207 -0.000000 -1.959680 -0.951416 0.940750 16.377300 -0.000001 -0.000001 -0.686673 -1.300700 0.382129 6.456720 -0.000001 -0.000000 -1.446600 -1.356130 0.543767 12.994200 -0.242716 4.980390 -83.778500 -11.405400 -61.133200 5.348090 -0.000007 -0.000001 -56.620000 -54.359700 -89.798500 24.328600 0.000019 0.000005 -3.089970 -3.161080 -44.390900 22.291600 -0.000001 0.000005 17.117200 5.583170 -10.383100 12.994500 -0.242716 -4.980390 93.308200 -6.808230 -64.005800 -5.348130 -0.000001 -0.000004 -59.555000 -49.911300 -106.014000 -24.328900 0.000322 -0.000009 -4.173650 -6.530340 -32.679100 -22.291500 -0.000108 -0.000004 15.016600 5.426950 -3.834890 -2.192480 -6.469440 -0.000000 -169.733000 -18.220500 -2.072220 39.081100 -0.000007 -0.000012 -0.165773 0.412698 21.884500 40.985400 -0.000006 -0.000013 -6.177480 -2.147720 -63.302000 11.754300 -0.000000 0.000003 -0.000116 -0.001165 -16.622100 -2.192510 6.469440 -0.000001 173.507000 20.533200 -179.992000 -39.081100 -0.002282 -0.040193 0.023230 -0.057253 19.172400 -40.985400 0.000008 0.000006 -1.606510 2.185360 -62.624200 -11.754300 -0.000006 -0.000006 -0.004422 -0.055755 -18.841300
0.000000 0.000000 0.000000 0.000000 0.000000 -0.000000 -0.355860 92.173600 0.774717 88.014000 -1.870900 4.286390 15.735700 0.000005 -0.000001 81.636600 87.068500 -81.156400 8.984550 -0.406207 -0.000000 -1.961500 -0.893318 0.945132 16.377300 -0.000001 -0.000001 -0.813399 -1.148280 0.313463 6.456720 -0.000001 -0.000000 -1.399850 -1.284840 0.466527 12.994200 -0.242716 4.980390 -83.766500 -11.444100 -61.167100 5.348090 -0.000007 -0.000001 -58.037200 -54.408200 -83.807200 24.328600 0.000019 0.000005 -3.491760 -3.572220 -44.401500 22.291600 -0.000001 0.000005 17.499100 5.580710 -10.250400 12.994500 -0.242716 -4.980390 92.924000 -5.948310 -63.761800 -5.348130 -0.000001 -0.000004 -59.290100 -49.995400 -100.514000 -24.328900 0.000322 -0.000009 -4.084040 -6.782370 -31.150000 -22.291500 -0.000108 -0.000004 15.137600 5.414210 -3.405250 -2.192480 -6.469440 -0.000000 -169.697000 -18.226800 -2.162110 39.081100 -0.000007 -0.000012 -0.169003 0.418163 22.006600 40.985400 -0.000006 -0.000013 -6.223880 -2.214740 -63.424800 11.754300 -0.000000 0.000003 -0.000143 -0.001396 -16.630700 -2.192510 6.469440 -0.000001 173.534000 20.510800 179.962000 -39.081100 -0.002282 -0.040193 0.016826 -0.038849 19.167100 -40.985400 0.000008 0.000006 -1.826570 2.290400 -62.654300 -11.754300 -0.000006 -0.000006 -0.004290 -0.054421 -18.787000
